<?xml version="1.0" encoding="UTF-8"?>
<svg xmlns="http://www.w3.org/2000/svg" xmlns:xlink="http://www.w3.org/1999/xlink" viewBox="0 0 144 144" width="144px" height="144px">
<g id="surface9546899">
<path style=" stroke:none;fill-rule:nonzero;fill:rgb(100%,100%,100%);fill-opacity:1;" d="M 71.851562 12 C 70.894531 12.03125 69.96875 12.371094 69.21875 12.96875 L 26.578125 46.558594 C 21.167969 50.824219 18 57.339844 18 64.230469 L 18 121.5 C 18 125.589844 21.410156 129 25.5 129 L 55.5 129 C 59.589844 129 63 125.589844 63 121.5 L 63 91.5 C 63 90.613281 63.613281 90 64.5 90 L 79.5 90 C 80.386719 90 81 90.613281 81 91.5 L 81 121.5 C 81 125.589844 84.410156 129 88.5 129 L 118.5 129 C 122.589844 129 126 125.589844 126 121.5 L 126 64.230469 C 126 57.339844 122.832031 50.824219 117.421875 46.558594 L 74.78125 12.96875 C 73.949219 12.308594 72.914062 11.96875 71.851562 12 Z M 72 22.230469 L 111.855469 53.628906 C 115.109375 56.195312 117 60.09375 117 64.230469 L 117 120 L 90 120 L 90 91.5 C 90 85.753906 85.246094 81 79.5 81 L 64.5 81 C 58.753906 81 54 85.753906 54 91.5 L 54 120 L 27 120 L 27 64.230469 C 27 60.09375 28.890625 56.195312 32.144531 53.628906 Z M 72 22.230469 "/>
</g>
</svg>
