<?xml version="1.0" encoding="UTF-8"?>
<svg xmlns="http://www.w3.org/2000/svg" xmlns:xlink="http://www.w3.org/1999/xlink" width="240pt" height="240pt" viewBox="0 0 240 240" version="1.1">
<g id="surface1">
<path style=" stroke:none;fill-rule:nonzero;fill:rgb(89.019608%,30.588235%,14.901961%);fill-opacity:1;" d="M 42.328125 206.207031 L 25.035156 12.238281 L 214.964844 12.238281 L 197.652344 206.222656 L 119.953125 227.761719 Z M 42.328125 206.207031 "/>
<path style=" stroke:none;fill-rule:nonzero;fill:rgb(93.72549%,40%,16.470588%);fill-opacity:1;" d="M 120 28.09375 L 120 211.285156 L 182.828125 193.871094 L 197.628906 28.09375 Z M 120 28.09375 "/>
<path style=" stroke:none;fill-rule:nonzero;fill:rgb(100%,100%,100%);fill-opacity:1;" d="M 60.417969 51.886719 L 66.828125 123.828125 L 149.285156 123.828125 L 146.519531 154.683594 L 119.96875 161.863281 L 93.46875 154.695312 L 91.699219 134.882812 L 67.820312 134.882812 L 71.234375 173.078125 L 119.964844 186.609375 L 168.753906 173.078125 L 175.296875 100.039062 L 88.585938 100.039062 L 86.410156 75.679688 L 177.453125 75.679688 L 179.582031 51.886719 Z M 60.417969 51.886719 "/>
<path style=" stroke:none;fill-rule:nonzero;fill:rgb(92.156863%,92.156863%,92.156863%);fill-opacity:1;" d="M 120 51.886719 L 60.417969 51.886719 L 66.828125 123.828125 L 120 123.828125 L 120 100.039062 L 88.585938 100.039062 L 86.410156 75.679688 L 120 75.679688 Z M 120 51.886719 "/>
<path style=" stroke:none;fill-rule:nonzero;fill:rgb(92.156863%,92.156863%,92.156863%);fill-opacity:1;" d="M 120 161.851562 L 119.96875 161.863281 L 93.46875 154.695312 L 91.699219 134.882812 L 67.820312 134.882812 L 71.234375 173.078125 L 119.964844 186.609375 L 120 186.601562 Z M 120 161.851562 "/>
</g>
</svg>
